name ./resultDataOpenSim/trcMotMarkerGrf/sub06/grf-03-06.mot
datacolumns 19
datarows 17
range 1.59600000 1.66000000
endheader

                time	     ground_force_vx	     ground_force_vy	     ground_force_vz	     ground_force_px	     ground_force_py	     ground_force_pz	   l_ground_force_vx	   l_ground_force_vy	   l_ground_force_vz	   l_ground_force_px	   l_ground_force_py	   l_ground_force_pz	     ground_torque_x	     ground_torque_y	     ground_torque_z	   l_ground_torque_x	   l_ground_torque_y	   l_ground_torque_z	
          1.59600000	        188.86686767	        829.04388095	        -56.66968795	          0.82682577	          0.00000000	          0.17036387	          0.00000000	          0.00000000	          0.00000000	          0.00000000	          0.00000000	          0.00000000	          0.00000000	          4.71213674	          0.00000000	          0.00000000	          0.00000000	          0.00000000	
          1.60000000	        192.90303000	        824.22755574	        -57.04287234	          0.82738940	          0.00000000	          0.17035838	          0.00000000	          0.00000000	          0.00000000	          0.00000000	          0.00000000	          0.00000000	          0.00000000	          4.79880545	          0.00000000	          0.00000000	          0.00000000	          0.00000000	
          1.60400000	        197.00176291	        816.93857365	        -57.67717276	          0.82792274	          0.00000000	          0.17037749	          0.00000000	          0.00000000	          0.00000000	          0.00000000	          0.00000000	          0.00000000	          0.00000000	          4.87946509	          0.00000000	          0.00000000	          0.00000000	          0.00000000	
          1.60800000	        201.34284451	        807.25936810	        -58.47916945	          0.82837775	          0.00000000	          0.17042022	          0.00000000	          0.00000000	          0.00000000	          0.00000000	          0.00000000	          0.00000000	          0.00000000	          4.93007925	          0.00000000	          0.00000000	          0.00000000	          0.00000000	
          1.61200000	        205.93990638	        795.31280679	        -59.32435761	          0.82875675	          0.00000000	          0.17049078	          0.00000000	          0.00000000	          0.00000000	          0.00000000	          0.00000000	          0.00000000	          0.00000000	          4.93033645	          0.00000000	          0.00000000	          0.00000000	          0.00000000	
          1.61600000	        210.63337218	        781.26504740	        -60.04512369	          0.82909381	          0.00000000	          0.17058168	          0.00000000	          0.00000000	          0.00000000	          0.00000000	          0.00000000	          0.00000000	          0.00000000	          4.87029233	          0.00000000	          0.00000000	          0.00000000	          0.00000000	
          1.62000000	        215.15514298	        765.29322528	        -60.45814460	          0.82941033	          0.00000000	          0.17067311	          0.00000000	          0.00000000	          0.00000000	          0.00000000	          0.00000000	          0.00000000	          0.00000000	          4.75324584	          0.00000000	          0.00000000	          0.00000000	          0.00000000	
          1.62400000	        219.17522524	        747.52473167	        -60.40842396	          0.82971078	          0.00000000	          0.17075544	          0.00000000	          0.00000000	          0.00000000	          0.00000000	          0.00000000	          0.00000000	          0.00000000	          4.59383562	          0.00000000	          0.00000000	          0.00000000	          0.00000000	
          1.62800000	        222.33287450	        728.01268784	        -59.79381410	          0.83001356	          0.00000000	          0.17082241	          0.00000000	          0.00000000	          0.00000000	          0.00000000	          0.00000000	          0.00000000	          0.00000000	          4.41253295	          0.00000000	          0.00000000	          0.00000000	          0.00000000	
          1.63200000	        224.30289646	        706.75350489	        -58.57873389	          0.83035147	          0.00000000	          0.17085410	          0.00000000	          0.00000000	          0.00000000	          0.00000000	          0.00000000	          0.00000000	          0.00000000	          4.22899972	          0.00000000	          0.00000000	          0.00000000	          0.00000000	
          1.63600000	        224.87244892	        683.68159537	        -56.79022187	          0.83074937	          0.00000000	          0.17081862	          0.00000000	          0.00000000	          0.00000000	          0.00000000	          0.00000000	          0.00000000	          0.00000000	          4.05671205	          0.00000000	          0.00000000	          0.00000000	          0.00000000	
          1.64000000	        223.96706543	        658.62474663	        -54.49140627	          0.83120862	          0.00000000	          0.17068423	          0.00000000	          0.00000000	          0.00000000	          0.00000000	          0.00000000	          0.00000000	          0.00000000	          3.90015281	          0.00000000	          0.00000000	          0.00000000	          0.00000000	
          1.64400000	        221.61848055	        631.27953227	        -51.75937474	          0.83171251	          0.00000000	          0.17044297	          0.00000000	          0.00000000	          0.00000000	          0.00000000	          0.00000000	          0.00000000	          0.00000000	          3.75469501	          0.00000000	          0.00000000	          0.00000000	          0.00000000	
          1.64800000	        217.91534593	        601.26639549	        -48.67529979	          0.83223908	          0.00000000	          0.17012093	          0.00000000	          0.00000000	          0.00000000	          0.00000000	          0.00000000	          0.00000000	          0.00000000	          3.60856453	          0.00000000	          0.00000000	          0.00000000	          0.00000000	
          1.65200000	        212.96504079	        568.25549556	        -45.30992617	          0.83275881	          0.00000000	          0.16976187	          0.00000000	          0.00000000	          0.00000000	          0.00000000	          0.00000000	          0.00000000	          0.00000000	          3.44600990	          0.00000000	          0.00000000	          0.00000000	          0.00000000	
          1.65600000	        206.85909249	        532.08341419	        -41.70862859	          0.83321221	          0.00000000	          0.16940408	          0.00000000	          0.00000000	          0.00000000	          0.00000000	          0.00000000	          0.00000000	          0.00000000	          3.25101331	          0.00000000	          0.00000000	          0.00000000	          0.00000000	
          1.66000000	        199.62852883	        492.79555107	        -37.88895651	          0.83350824	          0.00000000	          0.16906980	          0.00000000	          0.00000000	          0.00000000	          0.00000000	          0.00000000	          0.00000000	          0.00000000	          3.01127669	          0.00000000	          0.00000000	          0.00000000	          0.00000000	
